<svg xmlns="http://www.w3.org/2000/svg" viewBox="0 0 500 500">
	<path
		fill="#296fba"
		d="M 327.404 46.96 C 329.029 48.505 329.029 48.505 330.287 50.127 C 331.639 51.844 332.63 52.923 334.536 54.013 C 337.128 54.257 339.559 54.249 342.152 54.14 C 355.567 53.589 367.225 59.311 377.023 68.174 C 377.619 68.698 378.215 69.222 378.83 69.762 C 384.3 74.855 388.627 81.159 391.971 87.844 C 393.869 88.474 395.75 89.031 397.676 89.565 C 411.371 93.648 421.723 101.094 429.041 113.424 C 433.669 121.997 433.669 121.997 433.669 126.395 C 434.303 126.558 434.935 126.72 435.587 126.887 C 447.675 131.553 456.494 142.11 461.944 153.529 C 464.217 158.901 465.26 164.632 464.464 170.512 C 464.183 173.186 465.312 175.695 465.926 178.323 C 468.379 181.268 471.199 183.547 474.164 185.952 C 482.237 192.824 487.493 204.085 488.743 214.514 C 488.732 216.501 488.656 218.481 488.578 220.467 C 488.276 228.506 489.231 233.43 493.483 240.239 C 499.905 250.966 499.013 264.868 496.269 276.588 C 494.903 281.667 493.113 287.635 489.736 291.681 C 488.542 293.171 488.542 293.171 488.858 295.204 C 489.031 295.951 489.204 296.699 489.383 297.468 C 491.82 310.115 489.723 320.913 482.603 331.71 C 475.738 341.215 465.665 350.372 453.949 352.951 C 452.802 353.059 336.89 352.969 333.416 352.868 C 331.605 350.679 323.934 335.537 321.517 332.793 C 319.107 330.057 318.39 329.168 315.29 329.168 C 314.535 329.168 301.267 328.92 300.488 328.91 C 295.191 328.092 293.419 324.332 292.675 321.377 C 291.175 317.628 291.75 284.766 291.752 284.051 C 291.974 280.617 292.433 277.881 296.133 277.881 C 299.506 277.881 319.62 277.732 321.827 277.83 C 331.404 278.257 332.047 275.057 332.008 268.707 C 332 267.358 331.857 242.407 331.857 239.822 C 331.876 238.372 331.876 238.372 331.896 236.893 C 331.949 231.376 332.523 230.82 330.287 225.936 C 327.602 223.853 324.948 223.64 321.577 223.581 C 320.607 223.564 306.929 223.61 302.733 223.501 C 302.245 220.408 302.53 202.528 302.512 201.134 C 307.69 197.699 306.733 193.667 305.229 190.664 C 303.802 187.814 298.299 183.584 292.888 188.6 C 290.409 190.898 287.889 196.654 293.625 201.138 C 293.625 204.508 293.62 221.967 293.579 222.807 C 293.279 228.989 296.062 232.316 302.799 232.316 C 308.6 232.316 319.885 232.547 322.736 232.61 C 322.756 237.749 322.808 262.342 322.808 269.587 C 315.924 269.658 299.207 269.665 296.098 269.665 C 288.089 269.665 283.841 271.807 283.841 282.815 C 283.841 284.226 283.615 316.72 283.589 318.265 C 283.63 323.645 284.886 333.687 294.088 337.058 C 297.875 344.78 300.619 350.761 307.078 363.94 C 311.378 364.279 312.403 364.19 315.344 364.093 C 308.711 348.74 304.945 341.916 303.279 337.249 C 309.165 337.159 310.39 337.289 313.461 337.152 C 314.302 338.112 326.568 360.031 328.176 361.638 C 330.309 361.887 435.536 362.362 450.191 362.425 C 449.34 367.082 449.471 366.689 448.356 370.294 C 430.11 369.951 340.42 370.295 323.903 370.161 C 323.379 371.072 322.569 371.622 321.784 372.555 C 325.397 372.554 418.538 372.63 447.35 373.015 C 446.963 376.27 446.273 377.101 445.471 379.509 C 395.622 379.509 345.546 379.509 294.186 379.509 C 287.901 366.938 278.87 343.683 278.63 343.056 C 276.976 338.966 274.906 335.504 271.596 332.529 C 268.761 331.583 247.269 331.549 246.682 331.543 C 243.44 331.456 242.173 331.634 240.912 333.315 C 239.651 334.996 239.519 336.91 240.912 338.823 C 242.182 340.567 245.033 340.595 248.383 340.612 C 249.391 340.627 262.721 340.772 263.675 340.779 C 266.66 341.279 267.45 341.908 269.236 344.33 C 270.156 346.223 310.79 447.208 316.442 460.771 C 306.316 460.771 296.19 460.771 285.757 460.771 C 279.691 445.426 246.419 361.638 246.419 359.278 C 245.559 359.214 244.699 359.149 243.813 359.081 C 235.449 357.987 229.408 354.709 223.917 348.386 C 221.235 344.73 220.681 341.488 220.917 336.991 C 221.985 330.097 226.532 325.973 231.62 321.612 C 234.427 319.868 237.205 319.843 240.448 319.852 C 241.3 319.852 273.694 319.924 278.677 319.939 C 278.677 316.824 278.677 313.708 278.677 310.5 C 272.425 310.478 239.63 310.558 238.048 310.543 C 233.252 310.617 229.911 310.722 226.178 313.925 C 215.376 325.698 216.36 326.177 215.735 327.021 C 207.467 338.045 199.008 345.179 185.086 347.938 C 173.198 349.556 161.134 347.36 151.22 340.396 C 138.302 329.905 129.801 316.924 127.617 300.271 C 126.462 288.188 128.089 275.652 133.912 264.867 C 134.255 264.164 134.595 263.459 134.948 262.733 C 140.103 252.887 159.963 235.72 161.446 234.179 C 167.118 228.344 169.428 227.066 174.164 223.172 C 175.592 223.165 184.435 222.969 185.86 222.977 C 186.642 222.976 257.438 223.078 259.007 223.163 C 259.081 224.419 259.024 260.129 259.007 264.871 C 254.138 264.835 232.44 264.883 229.11 264.867 C 229.025 262.472 228.86 251.396 228.834 250.703 C 235.373 248.013 232.311 239.462 229.849 237.379 C 225.108 233.367 220.738 235.127 217.77 238.652 C 215.629 241.195 214.693 246.063 219.768 250.412 C 219.846 253.041 219.669 258.047 219.773 264.768 C 218.477 264.836 189.179 264.947 186.279 264.971 C 185.384 264.957 184.489 264.943 183.567 264.93 C 178.294 265.008 174.96 265.72 171.203 269.579 C 169.476 272.059 169.275 274.377 169.399 277.296 C 169.396 277.857 169.768 291.897 169.653 296.393 C 163.724 300.984 164.348 309.184 171.866 311.549 C 174.425 312.354 183.239 311.931 181.905 302.63 C 181.431 299.327 179.953 298.32 177.97 296.337 C 177.767 294.234 177.764 278.095 177.767 277.198 C 177.97 275.094 178.272 273.029 182.902 273.328 C 183.608 273.374 256.735 273.242 257.914 273.255 C 261.463 273.208 263.213 273.096 266.179 271.012 C 267.847 268.524 268.131 267.371 268.069 264.409 C 268.062 263.548 268.054 262.687 268.047 261.799 C 268.021 260.876 267.995 259.951 267.969 258.998 C 267.96 257.033 267.949 255.066 267.941 253.1 C 267.905 250.007 267.858 246.917 267.795 243.824 C 267.741 240.834 267.73 237.846 267.725 234.856 C 267.691 233.937 267.66 233.018 267.626 232.071 C 267.645 225.721 267.645 225.721 270.018 222.826 C 271.936 221.159 276.793 217.336 277.542 215.154 C 278.085 212.446 277.769 173.039 277.776 172.231 C 277.891 170.454 277.306 171.331 278.092 170.545 C 279.619 170.514 291.104 170.012 296.226 170.012 C 303.616 170.012 304.806 166.304 304.806 160.209 C 304.806 152.622 304.166 142.63 304.882 140.387 C 308.667 139.585 308.648 133.194 307.787 131.116 C 306.659 128.394 305.619 128.241 303.066 127.183 C 300.15 125.975 296.921 127.306 294.72 129.507 C 292.48 131.747 292.945 134.123 293.506 137.244 C 294.353 138.615 294.673 139.762 295.882 140.663 C 296.206 143.042 296.03 158.734 295.985 161.012 C 290.014 161.012 284.042 161.012 277.891 161.012 C 277.872 153.744 277.797 108.388 277.795 107.368 C 277.891 105.153 277.891 105.153 278.677 104.366 C 280.756 104.307 292.873 104.268 294.919 104.287 C 303.891 104.704 303.891 104.704 311.669 100.98 C 312.503 100.038 321.205 90.848 321.631 90.369 C 324.715 87.207 326.894 85.908 331.36 85.705 C 333.042 85.734 342.143 84.64 344.493 85.011 C 346.916 87.681 351.524 87.613 354.854 86.234 C 357.93 84.96 359.346 82.721 359.174 79.387 C 359.006 76.133 358.894 74.012 355.78 72.108 C 352.313 69.988 347.669 69.561 345.156 72.119 C 342.902 74.414 343.247 74.963 342.405 77.616 C 340.52 77.869 331.997 77.793 330.203 77.755 C 325.666 77.792 322.661 77.949 319.15 80.997 C 318.226 81.947 309.317 91.131 308.888 91.609 C 303.859 96.486 298.912 96.347 292.289 96.322 C 290.962 96.301 279.889 96.197 278.658 96.164 C 275.731 96.152 274.12 96.394 271.632 97.991 C 269.096 100.596 269.133 102.12 269.111 105.68 C 269.102 106.628 268.53 199.755 268.449 213.727 C 266.179 214.861 256.95 214.669 256.208 214.66 C 255.924 207.803 256.007 76.425 256.208 74.614 C 257.649 74.519 267.438 74.448 269.317 74.417 C 277.892 74.275 278.559 73.407 283.397 71.322 C 285.234 71.322 287.208 72.025 288.904 71.322 C 291.958 70.057 293.811 69.647 294.412 66.602 C 295.289 62.157 294.06 60.164 292.003 57.112 C 289.413 55.404 287.962 54.996 284.915 55.209 C 282.199 55.886 281.067 57.304 279.463 59.52 C 278.736 61.363 278.74 63.078 278.321 65.027 C 272.512 65.77 259.371 65.959 256.004 65.601 C 255.737 62.002 255.417 46.379 255.402 45.455 C 256.002 42.24 257.317 41.124 259.794 39.065 C 280.894 26.173 309.015 31.661 327.404 46.96 Z M 383.488 107.326 C 380.677 107.627 376.507 110.013 375.448 113.808 C 374.994 113.81 341.016 114.087 340.348 114.092 C 337.506 114.853 333.39 116.786 333.533 122.831 C 333.736 131.402 334.111 154.011 333.834 162.073 C 333.481 172.363 333.908 176.121 344.46 184.266 C 344.46 187.892 344.568 245.524 344.564 246.161 C 344.579 249.151 344.638 250.514 346.339 253.065 C 349.043 252.923 349.043 252.923 351.846 252.279 C 353.988 249.538 353.596 246.297 353.521 242.988 C 353.506 241.712 353.149 198.783 353.11 197.383 C 352.808 185.899 352.808 185.899 356.184 181.939 C 358.473 179.663 365.882 173.483 366.767 172.515 C 370.515 169.374 375.005 170.255 379.626 170.372 C 381.165 170.375 405.931 171.024 407.925 171.078 C 412.529 171.077 415.655 170.919 419.284 167.913 C 422.129 164.936 423.352 162.721 423.57 158.572 C 423.527 157.229 423.527 157.229 423.484 155.86 C 423.465 154.872 423.172 143.712 422.86 136.348 C 427.384 135.177 427.131 128.466 424.256 125.485 C 419.245 120.288 414.473 121.719 411.739 124.453 C 409.574 126.618 406.533 133.947 413.677 137.028 C 413.771 141.87 414.397 150.469 414.042 155.257 C 413.63 160.826 408.541 161.365 405.648 161.242 C 404.316 161.185 374.283 160.66 371.063 160.687 C 362.621 160.757 353.994 171.227 351.059 174.388 C 348.917 173.037 348.567 173.23 344.552 168.881 C 344.552 152.018 343.912 128.605 343.978 123.248 C 348.808 123.323 373.315 122.969 377.284 123.02 C 379.137 123.952 389.474 129.442 392.757 119.314 C 393.327 115.327 393.217 113.837 391.233 110.316 C 388.515 108.042 386.96 107.494 383.488 107.326 Z M 396.805 176.49 C 392.375 180.758 370.837 199.297 368.557 201.773 C 364.571 206.103 364.671 211.566 364.703 215.912 C 364.693 216.933 364.452 298.724 364.434 310.5 C 342.364 310.759 320.296 309.87 297.559 310.138 C 297.3 312.995 297.837 317.113 297.57 320.053 C 302.677 320.697 368.049 321.464 369.825 321.499 C 381.092 322.021 384.756 322.168 390.917 317.377 C 394.301 314.745 409.197 300.215 413.637 295.322 C 417.625 290.928 418.091 286.64 418.091 283.232 C 418.091 277.687 417.972 270.198 417.978 269.1 C 418.897 267.144 419.147 266.427 421.081 264.867 C 422.233 261.249 422.213 258.514 420.588 255.081 C 418.601 252.935 417.632 252.087 414.787 251.492 C 411.163 251.492 409.721 251.893 406.969 254.295 C 404.764 257.332 402.873 265.093 407.663 267.111 C 408.134 274.143 408.246 283.208 407.702 287.296 C 402.028 293.588 388.342 306.095 385.462 309.044 C 382.913 311.515 375.591 310.513 374.663 310.5 C 374.533 297.682 374.007 219.825 373.976 218.44 C 374.017 213.944 374.337 211.194 377.334 207.723 C 378.257 206.816 406.888 179.555 409.993 176.391 C 404.988 176.263 400.562 176.459 396.805 176.49 Z M 435.243 186.976 C 434.012 189.438 433.698 191.423 434.456 194.058 C 435.125 196.382 436.964 197.24 437.499 198.123 C 437.683 203.269 437.67 220.567 437.603 223.168 C 436.883 223.16 404.102 223.63 398.716 223.63 C 391.461 223.63 387.949 228.356 387.949 236.343 C 387.949 241.594 388.02 265.938 388.037 270.373 C 387.539 270.607 385.283 272.714 384.297 274.105 C 383.478 276.937 383.248 278.61 384.103 281.388 C 385.884 283.713 387.182 284.985 389.907 286.06 C 393.717 286.15 396.508 285.381 399.396 282.863 C 400.947 280.012 401.396 277.444 400.626 274.309 C 399.959 272.334 397.827 270.508 397.291 269.835 C 397.101 266.819 396.965 241.405 397.337 233.705 C 400.595 233.555 435.212 233.17 436.531 233.262 C 444.857 233.844 447.378 231.398 446.967 220.762 C 446.81 216.712 447.127 199.71 447.133 198.676 C 453.759 194.544 451.253 189.15 449.946 186.288 C 448.405 184.346 447.104 183.193 444.616 182.751 C 440.096 182.618 438.126 183.194 435.243 186.976 Z M 465.023 269.149 C 466.756 271.431 467.168 271.75 470.24 273.333 C 473.44 274.982 478.022 274.494 480.923 271.593 C 483.807 268.709 484.542 265.242 483.624 261.633 C 482.23 259.262 480.663 256.592 476.614 254.824 C 474.739 254.517 467.207 253.962 465.222 260.568 C 460.424 260.789 457.945 261.147 455.566 260.971 C 452.606 260.752 453.096 260.917 450.973 258.769 C 443.61 251.321 437.563 244.994 433.071 239.262 C 429.13 239.324 426.773 239.179 422.783 239.287 C 427.046 245.243 437.481 256.282 444.036 263.864 C 447.241 267.571 448.154 269.19 453.402 269.19 C 459.244 269.19 460.083 269.149 465.023 269.149 Z M 424.32 278.242 C 424.327 281.405 424.051 285.07 423.974 289.056 C 428.105 294.315 437.629 303.478 438.458 304.343 C 441.863 306.473 442.74 306.413 446.667 306.268 C 447.399 306.254 454.393 306.43 456.192 306.364 C 456.248 307.599 457.878 309.754 459.437 310.745 C 462.593 311.71 464.988 311.68 468.041 310.4 C 470.39 308.498 471.247 307.073 472.22 304.205 C 472.535 300.465 471.886 298.452 469.467 295.551 C 466.879 293.711 464.513 293.537 461.4 293.531 C 459.471 293.875 458.298 295.487 456.635 297.181 C 452.015 297.818 447.31 297.14 443.243 296.652 C 440.005 293.663 425.985 278.991 424.32 278.242 Z"
	></path>
	<path
		fill="#296fba"
		d="M 241.309 35.169 C 243.842 35.169 245.345 36.256 246.834 39.852 C 247.749 42.06 247.608 44.503 247.571 46.885 C 247.572 47.948 248.138 193.307 247.827 214.361 C 243.223 214.751 237.334 214.514 235.176 214.11 C 235.451 185.812 234.06 62.774 233.9 44.985 C 233.952 42.254 234.193 40.631 235.815 38.368 C 237.697 35.742 238.434 35.169 241.309 35.169 Z"
	></path>
	<path
		fill="#296fba"
		d="M 218.932 35.426 C 221.489 35.426 221.243 35.917 222.938 37.473 C 224.912 40.707 224.636 41.898 224.587 45.617 C 224.593 46.687 224.295 186.835 223.976 214.7 C 219.853 214.592 215.981 214.886 212.217 214.285 C 212.317 192.885 212.088 45.592 212.076 44.906 C 212.122 41.528 212.294 40.232 214.435 37.473 C 216.521 35.917 216.472 35.426 218.932 35.426 Z"
	></path>
	<path
		fill="#296fba"
		d="M 321.822 417.341 C 353.238 417.341 383.395 417.593 415.762 417.593 C 404.057 432.461 382.51 435.212 362.86 434.021 C 349.161 432.62 327.266 424.185 321.822 417.341 Z"
	></path>
	<path
		fill="#296fba"
		d="M 299.54 390.089 C 345.756 390.089 393.482 390.088 439.585 390.466 C 437.177 394.708 437.429 393.701 434.928 396.918 C 429.899 396.938 308.955 396.403 304.035 396.529 C 301.776 394.275 301.554 393.864 299.54 390.089 Z"
	></path>
	<path
		fill="#296fba"
		d="M 294.947 382.221 C 309.514 381.948 420.755 382.182 444.432 382.567 C 443.561 384.988 442.512 386.306 440.764 388.244 C 418.435 387.878 315.876 388.13 297.904 387.98 C 296.63 385.911 295.481 384.093 294.947 382.221 Z"
	></path>
	<path
		fill="#296fba"
		d="M 305.427 398.616 C 314.409 398.592 424.191 398.897 433.166 399.025 C 432.235 401.676 429.869 403.994 427.595 405.699 C 422.038 405.75 323.415 405.764 310.049 405.825 C 308.266 403.821 306.434 401.42 305.427 398.616 Z"
	></path>
	<path
		fill="#296fba"
		d="M 312.506 408.057 C 349.895 408.057 387.282 408.057 425.802 408.057 C 423.723 411.411 422.797 412.433 419.274 415.095 C 413.351 415.325 328.484 415.442 318.952 415.392 C 315.335 412.552 313.294 410.417 312.506 408.057 Z"
	></path>
	<path
		fill="#6d55ba"
		d="M 200.786 39.851 C 202.84 41.905 202.55 43.338 202.567 46.133 C 202.56 47.132 202.56 47.132 202.554 48.15 C 202.557 48.854 202.558 49.559 202.56 50.283 C 202.564 52.659 202.557 55.034 202.552 57.408 C 202.552 59.104 202.554 60.802 202.556 62.498 C 202.559 67.116 202.554 71.733 202.546 76.352 C 202.539 81.174 202.54 85.998 202.54 90.819 C 202.539 98.917 202.533 107.016 202.523 115.115 C 202.51 124.494 202.506 133.871 202.506 143.251 C 202.507 152.254 202.502 161.258 202.495 170.261 C 202.492 174.102 202.491 177.942 202.491 181.783 C 202.49 186.3 202.486 190.816 202.478 195.334 C 202.476 196.996 202.474 198.659 202.475 200.323 C 202.476 202.582 202.47 204.842 202.465 207.101 C 202.466 207.769 202.467 208.436 202.468 209.124 C 202.449 213.637 202.449 213.637 201.573 214.514 C 199.349 214.542 175.188 214.629 170.911 215.022 C 166.739 219.143 144.042 238.678 141.239 240.871 C 127.7 251.876 121.752 267.406 119.849 284.303 C 119.018 291.204 118.956 290.335 118.313 297.349 C 111.021 297.442 56.928 297.388 55.429 297.387 C 41.599 297.365 30.346 296.878 19.928 286.651 C 16.524 283.067 13.908 279.637 11.963 275.094 C 11.714 274.558 9.558 266.525 9.701 262.457 C 9.811 258.017 9.358 255.686 6.698 252.173 C 0.686 243.596 1.655 229.947 2.912 220.113 C 3.975 215.125 5.722 210.624 7.962 206.049 C 9.494 202.884 9.621 200.491 9.51 197.003 C 9.1 182.571 13.004 170.112 22.941 159.445 C 25.17 157.133 27.543 155.134 30.059 153.146 C 32.195 151.369 33.085 150.516 33.718 147.786 C 33.83 146.546 33.83 146.546 33.943 145.278 C 35.379 134.378 40.72 124.793 49.285 117.79 C 54.138 114.32 59.406 111.138 65.463 110.66 C 65.545 109.858 65.629 109.056 65.715 108.228 C 67.849 95.951 77.787 84.518 87.31 77.026 C 97.638 69.834 109.534 64.412 122.351 65.32 C 127.799 65.746 127.799 65.746 132.635 63.677 C 133.998 61.831 135.131 59.935 136.271 57.947 C 145.097 47.12 159.443 39.695 173.173 37.684 C 182.434 36.949 191.921 36.667 200.786 39.851 Z M 177.183 55.587 C 175.584 57.985 175.327 58.65 175.315 61.388 C 175.293 66.61 176.578 66.291 179.383 68.592 C 179.259 76.436 179.49 94.467 179.438 101.346 C 181.425 103.154 184.364 105.867 188.698 109.636 C 189.391 105.51 189.018 72.891 188.986 68.174 C 193.751 67.143 192.593 61.129 192.132 57.947 C 190.41 55.726 189.118 54.473 186.625 53.226 C 182.694 52.929 180.338 53.153 177.183 55.587 Z M 142.565 77.616 C 140.496 80.25 140.65 83.032 140.993 86.27 C 142.349 88.591 142.149 89.771 145.28 90.204 C 145.28 94.878 145.713 99.551 145.713 104.366 C 142.189 104.256 130.773 104.79 129.86 104.761 C 122.868 104.6 123.554 100.846 123.487 99.842 C 123.175 97.215 122.856 96.442 121.225 94.188 C 118.473 92.212 116.836 91.778 113.456 91.778 C 110.651 92.75 109.156 93.631 107.26 95.909 C 106.104 98.733 105.949 100.549 106.374 103.58 C 107.828 106.346 107.828 106.346 110.308 108.301 C 111.932 108.65 114.257 109.716 115.756 108.852 C 117.24 109.12 116.602 109.087 118.323 111.054 C 123.358 115.529 132.964 113.803 139.403 113.635 C 141.791 113.583 144.179 113.53 146.567 113.477 C 148.198 113.435 149.831 113.251 151.461 113.315 C 166.259 113.895 168 112.473 173.021 116.968 C 174.047 118.157 178.222 123.248 178.758 123.248 C 178.778 128.949 179.257 162.875 178.469 163.661 C 176.722 163.675 157.15 163.482 154.368 163.374 C 154.108 158.959 154.285 154.546 154.017 149.998 C 155.38 149.885 155.138 149.479 155.941 149.212 C 157.887 146.294 157.945 143.943 157.514 140.558 C 156.531 138.296 155.74 137.063 153.777 135.591 C 151.162 134.791 149.225 134.721 146.5 135.05 C 144.162 136.455 142.231 138.081 140.993 140.558 C 140.678 143.743 140.678 143.743 140.993 146.852 C 141.513 147.434 142.751 148.681 144.19 149.896 C 144.191 154.169 144.207 161.318 144.14 163.374 C 139.466 163.633 134.792 163.892 129.977 164.16 C 130.074 160.749 130.573 138.058 130.601 137.357 C 130.603 134.611 130.53 132.683 128.917 130.402 C 126.559 128.154 124.904 127.262 121.668 126.672 C 120.7 126.706 119.732 126.741 118.736 126.777 C 118.212 126.787 99.084 127.227 97.581 127.286 C 96.516 124.796 94.242 121.304 88.913 121.796 C 84.184 122.233 81.648 125.495 80.412 127.968 C 79.9 131.682 79.84 134.237 82.035 137.362 C 84.844 140.216 90.165 143.772 96.67 137.556 C 99.087 137.377 116.885 137.379 119.75 137.41 C 120.487 157.463 120.05 159.793 119.883 165.767 C 117.547 168.121 107.821 175.965 106.197 177.627 C 103.338 179.569 100.938 179.509 97.607 179.416 C 97.001 179.412 77.717 180.6 76.478 179.109 C 75.255 177.118 75.151 169.314 75.151 165.377 C 77.812 162.272 79.075 160.325 78.837 157.375 C 77.986 154.499 76.982 152.925 74.905 150.786 C 71.959 149.314 68.34 149.646 65.216 150.491 C 63.129 152.192 62.422 153.758 61.529 156.293 C 61.416 158.52 61.573 160.48 62.316 162.587 C 62.841 163.129 64.201 164.504 65.574 165.563 C 65.541 170.602 65.865 172.459 65.846 177.016 C 65.915 181.416 65.915 181.416 67.602 185.428 C 71.021 188.378 74.102 188.745 78.533 188.704 C 79.514 188.698 92.814 188.583 95.359 188.55 C 95.361 189.03 95.18 197.839 95.289 209.269 C 88.097 210.252 82 209.399 77.801 209.618 C 76.059 206.177 72.133 204.941 68.955 205.484 C 65.868 206.012 63.99 206.733 62.318 211.155 C 61.091 214.401 62.039 217.848 63.821 219.768 C 66.16 222.288 68.111 223.277 72.468 222.731 C 75.654 222.332 76.674 221.762 78.222 218.855 C 81.494 218.614 91.278 219.029 94.932 218.978 C 95.333 221.008 95.012 219.701 95.217 223.468 C 95.45 227.748 95.86 233.041 106.119 233.35 C 108.381 233.418 110.931 233.368 114.476 233.002 C 119.082 232.527 124.434 227.708 126.988 225.478 C 131.549 221.495 151.745 202.925 152.421 202.223 C 155.683 199.542 156.445 200.207 163.077 199.962 C 168.281 199.77 181.315 200.366 187.133 199.838 C 187.198 196.327 187.381 194.343 187.043 190.135 C 183.551 190.127 178.892 189.536 169.202 189.547 C 156.6 189.561 150.118 190.456 146.534 194.04 C 145.319 195.255 121.94 217.52 121.051 218.379 C 116.435 222.732 112.189 223.501 105.588 223.168 C 105.569 218.729 105.494 193.746 105.493 193.176 C 105.588 191.697 105.588 191.697 106.374 189.337 C 107.724 188.351 116.334 181.867 119.468 178.535 C 123.212 174.933 125.855 174.094 131.058 174.11 C 131.628 174.109 180.005 174.086 181.578 174.088 C 184.925 173.483 186.057 172.241 188.198 169.668 C 188.458 169.408 188.718 169.149 188.986 168.881 C 189.54 162.596 189.518 156.227 189.62 149.917 C 189.669 146.996 189.738 144.079 189.859 141.161 C 190.028 132.719 190.028 124.616 189.811 119.731 C 187.2 117.255 178.151 106.186 174.596 105.373 C 168.795 104.242 161.346 103.96 155.155 104.366 C 155.241 101.793 154.641 93.642 154.535 90.055 C 155.797 88.056 155.941 88.632 157.514 86.27 C 157.455 82.495 157.279 80.737 155.055 77.665 C 150.66 74.511 147.012 74.618 142.565 77.616 Z M 31.367 212.891 C 28.398 215.136 28.181 218.753 29.008 222.381 C 29.674 225.302 30.438 225.52 32.677 226.947 C 32.348 229.924 32.296 237.514 32.284 238.994 C 32.391 243.513 33.06 246.185 36.112 249.566 C 40.261 252.62 44.054 253.361 49.136 253.369 C 49.704 253.374 113.373 253.366 114.423 253.364 C 115.501 249.556 119.883 245.792 121.432 242.837 C 119.434 242.766 117.348 242.738 115.349 242.748 C 114.742 242.748 50.495 242.82 43.169 242.837 C 41.222 229.574 42.205 230.338 41.833 226.44 C 43.349 225.763 45.221 224.479 45.529 223.736 C 46.953 220.301 46.531 219.037 45.381 215.89 C 43.564 213.081 43.564 213.081 40.808 211.367 C 37.09 210.739 34.683 210.383 31.367 212.891 Z M 46.316 264.867 C 44.72 267.207 44.243 270.268 45.529 272.734 C 47.05 275.651 49.439 277.761 52.61 278.242 C 56.192 278.785 57.943 278.731 61.561 274.887 C 63.606 274.887 105.148 274.718 105.721 274.724 C 106.721 270.411 107.166 267.294 108.735 263.876 C 106.762 263.448 63.982 264.031 60.478 264.079 C 60.478 263.56 59.796 261.759 57.451 260.918 C 53.163 259.381 50.001 259.464 46.316 264.867 Z"
	></path>
</svg>
